<?xml version="1.0" standalone="no"?>
<!DOCTYPE svg PUBLIC "-//W3C//DTD SVG 20010904//EN"
 "http://www.w3.org/TR/2001/REC-SVG-20010904/DTD/svg10.dtd">
<svg version="1.0" xmlns="http://www.w3.org/2000/svg"
 width="123.000000pt" height="123.000000pt" viewBox="0 0 123.000000 123.000000"
 preserveAspectRatio="xMidYMid meet">
<metadata>
Created by potrace 1.14, written by Peter Selinger 2001-2017
</metadata>
<g transform="translate(0.000000,123.000000) scale(0.100000,-0.100000)"
fill="#000000" stroke="none">
<path d="M495 1168 c-39 -21 -65 -52 -65 -75 0 -65 53 -97 148 -91 58 4 68 8
93 36 33 37 36 58 13 91 -32 45 -139 67 -189 39z"/>
<path d="M356 933 c-55 -20 -91 -59 -80 -87 18 -47 209 -97 374 -100 125 -1
191 18 215 64 18 36 11 56 -27 76 -75 39 -115 48 -223 50 -60 1 -132 4 -160 8
-36 4 -64 1 -99 -11z"/>
<path d="M279 707 c-90 -60 -89 -182 2 -249 94 -68 408 -63 641 11 150 49 212
108 161 153 -25 22 -97 57 -160 79 -50 17 -55 17 -91 1 -57 -26 -309 -22 -416
7 -98 26 -96 26 -137 -2z"/>
<path d="M902 396 c-142 -47 -421 -66 -548 -37 -56 12 -67 11 -139 -8 -91 -25
-175 -63 -199 -90 -14 -15 -15 -24 -7 -40 26 -47 220 -112 442 -148 155 -25
499 -24 596 1 157 40 224 146 154 245 -46 64 -209 106 -299 77z"/>
</g>
</svg>
